# xmcd CD database file
#
# Track frame offsets:
#	182
#	24445
#	49860
#	64597
#	75397
#	91297
#	119215
#	142930
#	177565
#	198500
#	242292
#	275375
#	318140
#
# Disc length: 4543 seconds
#
# Revision: 0
# Processed by: cddbd v1.5.1PL0 Copyright (c) Steve Scherf et al.
# Submitted via: CDex 1.51
#
DISCID=aa11bd0d
DTITLE=Marshall Vente - Marshall Vente and Tropicale
DYEAR=1995
DGENRE=Jazz
TTITLE0=Berimbau
TTITLE1=Flor di Lis
TTITLE2=Nino's Scene
TTITLE3=Chombo's Prelude
TTITLE4=Chombo
TTITLE5=Jira Eclectic
TTITLE6=How Insensitive (Insensatez)
TTITLE7=Agua de Beber
TTITLE8=Brasilian Folk Song
TTITLE9=The Girl From Ipanema
TTITLE10=Triste
TTITLE11=Don Quixote
TTITLE12=Morning of the Carnival
EXTD=YEAR: 1995
EXTT0=
EXTT1=
EXTT2=
EXTT3=
EXTT4=
EXTT5=
EXTT6=
EXTT7=
EXTT8=
EXTT9=
EXTT10=
EXTT11=
EXTT12=
PLAYORDER=
